<mxfile host="app.diagrams.net" modified="2023-12-26T01:02:54.441Z" agent="Mozilla/5.0 (Windows NT 10.0; Win64; x64) AppleWebKit/537.36 (KHTML, like Gecko) Chrome/120.0.0.0 Safari/537.36" etag="Jd_ULeIdSdbfOumDfpO9" version="22.1.11" type="github" pages="2">
  <diagram id="6a731a19-8d31-9384-78a2-239565b7b9f0" name="Page-1">
    <mxGraphModel dx="2074" dy="1144" grid="0" gridSize="10" guides="1" tooltips="1" connect="1" arrows="1" fold="1" page="1" pageScale="1" pageWidth="1169" pageHeight="827" background="none" math="0" shadow="0">
      <root>
        <mxCell id="0" />
        <mxCell id="1" parent="0" />
        <mxCell id="QEQ535KXU6paSwzJvipk-61" value="" style="edgeStyle=orthogonalEdgeStyle;rounded=0;orthogonalLoop=1;jettySize=auto;html=1;" parent="1" source="QEQ535KXU6paSwzJvipk-59" target="QEQ535KXU6paSwzJvipk-60" edge="1">
          <mxGeometry relative="1" as="geometry" />
        </mxCell>
        <mxCell id="QEQ535KXU6paSwzJvipk-59" value="确认收货后" style="rounded=0;whiteSpace=wrap;html=1;" parent="1" vertex="1">
          <mxGeometry x="410" y="90" width="120" height="60" as="geometry" />
        </mxCell>
        <mxCell id="QEQ535KXU6paSwzJvipk-64" value="" style="edgeStyle=orthogonalEdgeStyle;rounded=0;orthogonalLoop=1;jettySize=auto;html=1;" parent="1" source="QEQ535KXU6paSwzJvipk-60" target="QEQ535KXU6paSwzJvipk-63" edge="1">
          <mxGeometry relative="1" as="geometry">
            <Array as="points">
              <mxPoint x="360" y="260" />
              <mxPoint x="360" y="260" />
            </Array>
          </mxGeometry>
        </mxCell>
        <mxCell id="QEQ535KXU6paSwzJvipk-74" value="" style="edgeStyle=orthogonalEdgeStyle;rounded=0;orthogonalLoop=1;jettySize=auto;html=1;" parent="1" source="QEQ535KXU6paSwzJvipk-60" target="QEQ535KXU6paSwzJvipk-73" edge="1">
          <mxGeometry relative="1" as="geometry" />
        </mxCell>
        <mxCell id="QEQ535KXU6paSwzJvipk-60" value="成功/关闭节点" style="rounded=0;whiteSpace=wrap;html=1;" parent="1" vertex="1">
          <mxGeometry x="410" y="230" width="120" height="60" as="geometry" />
        </mxCell>
        <mxCell id="QEQ535KXU6paSwzJvipk-62" value="x天" style="text;html=1;align=center;verticalAlign=middle;resizable=0;points=[];autosize=1;strokeColor=none;fillColor=none;" parent="1" vertex="1">
          <mxGeometry x="470" y="168" width="40" height="30" as="geometry" />
        </mxCell>
        <mxCell id="QEQ535KXU6paSwzJvipk-122" style="edgeStyle=orthogonalEdgeStyle;rounded=0;orthogonalLoop=1;jettySize=auto;html=1;exitX=1;exitY=1;exitDx=0;exitDy=0;entryX=0.392;entryY=-0.017;entryDx=0;entryDy=0;entryPerimeter=0;" parent="1" source="QEQ535KXU6paSwzJvipk-63" target="QEQ535KXU6paSwzJvipk-77" edge="1">
          <mxGeometry relative="1" as="geometry">
            <Array as="points">
              <mxPoint x="280" y="310" />
              <mxPoint x="280" y="388" />
              <mxPoint x="485" y="388" />
            </Array>
          </mxGeometry>
        </mxCell>
        <mxCell id="QEQ535KXU6paSwzJvipk-63" value="无正在处理售后单" style="rounded=0;whiteSpace=wrap;html=1;" parent="1" vertex="1">
          <mxGeometry x="210" y="230" width="120" height="80" as="geometry" />
        </mxCell>
        <mxCell id="QEQ535KXU6paSwzJvipk-72" value="交易成功&lt;br&gt;完结" style="rhombus;whiteSpace=wrap;html=1;" parent="1" vertex="1">
          <mxGeometry x="458" y="595" width="80" height="80" as="geometry" />
        </mxCell>
        <mxCell id="QEQ535KXU6paSwzJvipk-118" value="" style="edgeStyle=orthogonalEdgeStyle;rounded=0;orthogonalLoop=1;jettySize=auto;html=1;" parent="1" source="QEQ535KXU6paSwzJvipk-73" target="QEQ535KXU6paSwzJvipk-106" edge="1">
          <mxGeometry relative="1" as="geometry">
            <Array as="points">
              <mxPoint x="670" y="190" />
              <mxPoint x="1010" y="190" />
              <mxPoint x="1010" y="430" />
            </Array>
          </mxGeometry>
        </mxCell>
        <mxCell id="QEQ535KXU6paSwzJvipk-120" value="" style="edgeStyle=orthogonalEdgeStyle;rounded=0;orthogonalLoop=1;jettySize=auto;html=1;" parent="1" source="QEQ535KXU6paSwzJvipk-73" target="QEQ535KXU6paSwzJvipk-119" edge="1">
          <mxGeometry relative="1" as="geometry" />
        </mxCell>
        <mxCell id="QEQ535KXU6paSwzJvipk-73" value="有正在售后单&lt;br&gt;订单卡死" style="rounded=0;whiteSpace=wrap;html=1;" parent="1" vertex="1">
          <mxGeometry x="610" y="230" width="120" height="60" as="geometry" />
        </mxCell>
        <mxCell id="QEQ535KXU6paSwzJvipk-81" value="" style="edgeStyle=orthogonalEdgeStyle;rounded=0;orthogonalLoop=1;jettySize=auto;html=1;" parent="1" source="QEQ535KXU6paSwzJvipk-77" target="QEQ535KXU6paSwzJvipk-80" edge="1">
          <mxGeometry relative="1" as="geometry" />
        </mxCell>
        <mxCell id="QEQ535KXU6paSwzJvipk-83" value="" style="edgeStyle=orthogonalEdgeStyle;rounded=0;orthogonalLoop=1;jettySize=auto;html=1;" parent="1" source="QEQ535KXU6paSwzJvipk-77" target="QEQ535KXU6paSwzJvipk-82" edge="1">
          <mxGeometry relative="1" as="geometry" />
        </mxCell>
        <mxCell id="QEQ535KXU6paSwzJvipk-77" value="判断完结售后订单数量&lt;br&gt;" style="whiteSpace=wrap;html=1;rounded=0;" parent="1" vertex="1">
          <mxGeometry x="438" y="465" width="120" height="60" as="geometry" />
        </mxCell>
        <mxCell id="QEQ535KXU6paSwzJvipk-89" value="" style="edgeStyle=orthogonalEdgeStyle;rounded=0;orthogonalLoop=1;jettySize=auto;html=1;" parent="1" source="QEQ535KXU6paSwzJvipk-80" target="QEQ535KXU6paSwzJvipk-88" edge="1">
          <mxGeometry relative="1" as="geometry" />
        </mxCell>
        <mxCell id="sFRIHhsEzlGVuzLUQ37a-4" value="不相等" style="edgeLabel;html=1;align=center;verticalAlign=middle;resizable=0;points=[];" parent="QEQ535KXU6paSwzJvipk-89" vertex="1" connectable="0">
          <mxGeometry y="2" relative="1" as="geometry">
            <mxPoint as="offset" />
          </mxGeometry>
        </mxCell>
        <mxCell id="QEQ535KXU6paSwzJvipk-91" value="" style="edgeStyle=orthogonalEdgeStyle;rounded=0;orthogonalLoop=1;jettySize=auto;html=1;" parent="1" source="QEQ535KXU6paSwzJvipk-80" target="QEQ535KXU6paSwzJvipk-90" edge="1">
          <mxGeometry relative="1" as="geometry" />
        </mxCell>
        <mxCell id="sFRIHhsEzlGVuzLUQ37a-3" value="相等&lt;br&gt;" style="edgeLabel;html=1;align=center;verticalAlign=middle;resizable=0;points=[];" parent="QEQ535KXU6paSwzJvipk-91" vertex="1" connectable="0">
          <mxGeometry x="-0.1429" relative="1" as="geometry">
            <mxPoint as="offset" />
          </mxGeometry>
        </mxCell>
        <mxCell id="QEQ535KXU6paSwzJvipk-80" value="订单商品数量和完结售后订单商品数量" style="whiteSpace=wrap;html=1;rounded=0;" parent="1" vertex="1">
          <mxGeometry x="232" y="465" width="120" height="60" as="geometry" />
        </mxCell>
        <mxCell id="QEQ535KXU6paSwzJvipk-85" value="" style="edgeStyle=orthogonalEdgeStyle;rounded=0;orthogonalLoop=1;jettySize=auto;html=1;entryX=1;entryY=0.5;entryDx=0;entryDy=0;" parent="1" source="QEQ535KXU6paSwzJvipk-82" target="QEQ535KXU6paSwzJvipk-72" edge="1">
          <mxGeometry relative="1" as="geometry">
            <mxPoint x="698" y="595" as="targetPoint" />
            <Array as="points">
              <mxPoint x="668" y="635" />
            </Array>
          </mxGeometry>
        </mxCell>
        <mxCell id="QEQ535KXU6paSwzJvipk-82" value="无售后单" style="whiteSpace=wrap;html=1;rounded=0;" parent="1" vertex="1">
          <mxGeometry x="628" y="465" width="130" height="60" as="geometry" />
        </mxCell>
        <mxCell id="QEQ535KXU6paSwzJvipk-92" value="" style="edgeStyle=orthogonalEdgeStyle;rounded=0;orthogonalLoop=1;jettySize=auto;html=1;" parent="1" source="QEQ535KXU6paSwzJvipk-88" target="QEQ535KXU6paSwzJvipk-72" edge="1">
          <mxGeometry relative="1" as="geometry" />
        </mxCell>
        <mxCell id="QEQ535KXU6paSwzJvipk-88" value="未全部完结" style="whiteSpace=wrap;html=1;rounded=0;" parent="1" vertex="1">
          <mxGeometry x="238" y="605" width="120" height="60" as="geometry" />
        </mxCell>
        <mxCell id="QEQ535KXU6paSwzJvipk-105" style="edgeStyle=orthogonalEdgeStyle;rounded=0;orthogonalLoop=1;jettySize=auto;html=1;exitX=0.5;exitY=1;exitDx=0;exitDy=0;entryX=0;entryY=0.5;entryDx=0;entryDy=0;" parent="1" source="QEQ535KXU6paSwzJvipk-90" target="QEQ535KXU6paSwzJvipk-94" edge="1">
          <mxGeometry relative="1" as="geometry" />
        </mxCell>
        <mxCell id="QEQ535KXU6paSwzJvipk-90" value="全部完结" style="whiteSpace=wrap;html=1;rounded=0;" parent="1" vertex="1">
          <mxGeometry x="68" y="605" width="100" height="60" as="geometry" />
        </mxCell>
        <mxCell id="QEQ535KXU6paSwzJvipk-94" value="交易关闭" style="rhombus;whiteSpace=wrap;html=1;" parent="1" vertex="1">
          <mxGeometry x="468" y="775" width="80" height="80" as="geometry" />
        </mxCell>
        <mxCell id="QEQ535KXU6paSwzJvipk-113" style="edgeStyle=orthogonalEdgeStyle;rounded=0;orthogonalLoop=1;jettySize=auto;html=1;exitX=0;exitY=0.5;exitDx=0;exitDy=0;entryX=1;entryY=0;entryDx=0;entryDy=0;" parent="1" source="QEQ535KXU6paSwzJvipk-106" target="QEQ535KXU6paSwzJvipk-77" edge="1">
          <mxGeometry relative="1" as="geometry">
            <mxPoint x="550" y="430" as="targetPoint" />
          </mxGeometry>
        </mxCell>
        <mxCell id="QEQ535KXU6paSwzJvipk-106" value="售后订单成功" style="rounded=0;whiteSpace=wrap;html=1;" parent="1" vertex="1">
          <mxGeometry x="820" y="400" width="120" height="60" as="geometry" />
        </mxCell>
        <mxCell id="QEQ535KXU6paSwzJvipk-121" style="edgeStyle=orthogonalEdgeStyle;rounded=0;orthogonalLoop=1;jettySize=auto;html=1;exitX=0;exitY=1;exitDx=0;exitDy=0;entryX=0.75;entryY=0;entryDx=0;entryDy=0;" parent="1" source="QEQ535KXU6paSwzJvipk-119" target="QEQ535KXU6paSwzJvipk-77" edge="1">
          <mxGeometry relative="1" as="geometry">
            <Array as="points">
              <mxPoint x="840" y="290" />
              <mxPoint x="840" y="390" />
              <mxPoint x="528" y="390" />
            </Array>
          </mxGeometry>
        </mxCell>
        <mxCell id="QEQ535KXU6paSwzJvipk-119" value="有售后单拒绝&lt;br&gt;" style="rounded=0;whiteSpace=wrap;html=1;" parent="1" vertex="1">
          <mxGeometry x="810" y="230" width="120" height="60" as="geometry" />
        </mxCell>
      </root>
    </mxGraphModel>
  </diagram>
  <diagram id="bWGxRsA-Bu9-mMKKw3x6" name="第 2 页">
    <mxGraphModel dx="2074" dy="1144" grid="1" gridSize="10" guides="1" tooltips="1" connect="1" arrows="1" fold="1" page="1" pageScale="1" pageWidth="827" pageHeight="1169" math="0" shadow="0">
      <root>
        <mxCell id="0" />
        <mxCell id="1" parent="0" />
      </root>
    </mxGraphModel>
  </diagram>
</mxfile>
